# xmcd
#
# Track frame offsets:
#	150
#	17513
#	36890
#	52049
#	62835
#	77813
#	93655
#	109133
#	126625
#	141943
#
# Disc length: 2042 seconds
#
# Revision: 0
# Processed by: cddbd v1.5.2PL0 Copyright (c) Steve Scherf et al.
# Submitted via: EasyCDDAExtractor 8.2.3.1
#
DISCID=9007f80a
DTITLE=Casey Dilworth - Vagabond Dreamer
DYEAR=2008
DGENRE=Country
TTITLE0=Belle Of The Ball
TTITLE1=Lonesome Onry and Mean
TTITLE2=She's In Love With A Rodeo Man
TTITLE3=Brown Eyed Handsome Man
TTITLE4=I Love 'Em Everyone
TTITLE5=Lock Stock And Teardrops
TTITLE6=Better Time To Say Goodbye
TTITLE7=How Much Rain Can One Man Stand
TTITLE8=Amanda
TTITLE9=Julie
EXTD=
EXTT0=
EXTT1=
EXTT2=
EXTT3=
EXTT4=
EXTT5=
EXTT6=
EXTT7=
EXTT8=
EXTT9=
PLAYORDER=
